<mxfile host="app.diagrams.net" agent="Mozilla/5.0 (X11; Linux x86_64) AppleWebKit/537.36 (KHTML, like Gecko) Chrome/127.0.0.0 Safari/537.36" version="24.7.6">
  <diagram id="prtHgNgQTEPvFCAcTncT" name="Page-1">
    <mxGraphModel dx="1364" dy="759" grid="1" gridSize="10" guides="1" tooltips="1" connect="1" arrows="1" fold="1" page="1" pageScale="1" pageWidth="827" pageHeight="1169" math="0" shadow="0">
      <root>
        <mxCell id="0" />
        <mxCell id="1" parent="0" />
        <mxCell id="ZT-aWz_Tc5fy5EEWcYav-1" value="Block-chain" style="whiteSpace=wrap;html=1;aspect=fixed;" vertex="1" parent="1">
          <mxGeometry x="350" y="120" width="80" height="80" as="geometry" />
        </mxCell>
        <mxCell id="ZT-aWz_Tc5fy5EEWcYav-2" value="Block" style="whiteSpace=wrap;html=1;aspect=fixed;" vertex="1" parent="1">
          <mxGeometry x="270" y="240" width="80" height="80" as="geometry" />
        </mxCell>
        <mxCell id="ZT-aWz_Tc5fy5EEWcYav-4" value="Block" style="whiteSpace=wrap;html=1;aspect=fixed;" vertex="1" parent="1">
          <mxGeometry x="480" y="240" width="80" height="80" as="geometry" />
        </mxCell>
        <mxCell id="ZT-aWz_Tc5fy5EEWcYav-5" value="Block" style="whiteSpace=wrap;html=1;aspect=fixed;" vertex="1" parent="1">
          <mxGeometry x="80" y="240" width="80" height="80" as="geometry" />
        </mxCell>
        <mxCell id="ZT-aWz_Tc5fy5EEWcYav-6" value="" style="endArrow=classic;html=1;rounded=0;exitX=0.5;exitY=1;exitDx=0;exitDy=0;entryX=0;entryY=0;entryDx=0;entryDy=0;" edge="1" parent="1" source="ZT-aWz_Tc5fy5EEWcYav-5" target="ZT-aWz_Tc5fy5EEWcYav-18">
          <mxGeometry relative="1" as="geometry">
            <mxPoint x="330" y="390" as="sourcePoint" />
            <mxPoint x="490" y="390" as="targetPoint" />
          </mxGeometry>
        </mxCell>
        <mxCell id="ZT-aWz_Tc5fy5EEWcYav-9" value="Text" style="edgeLabel;html=1;align=center;verticalAlign=middle;resizable=0;points=[];" vertex="1" connectable="0" parent="ZT-aWz_Tc5fy5EEWcYav-6">
          <mxGeometry x="-0.05" y="3" relative="1" as="geometry">
            <mxPoint as="offset" />
          </mxGeometry>
        </mxCell>
        <mxCell id="ZT-aWz_Tc5fy5EEWcYav-10" value="Text" style="edgeLabel;html=1;align=center;verticalAlign=middle;resizable=0;points=[];" vertex="1" connectable="0" parent="ZT-aWz_Tc5fy5EEWcYav-6">
          <mxGeometry y="5" relative="1" as="geometry">
            <mxPoint as="offset" />
          </mxGeometry>
        </mxCell>
        <mxCell id="ZT-aWz_Tc5fy5EEWcYav-11" value="State" style="edgeLabel;html=1;align=center;verticalAlign=middle;resizable=0;points=[];" vertex="1" connectable="0" parent="ZT-aWz_Tc5fy5EEWcYav-6">
          <mxGeometry x="-0.0222" y="3" relative="1" as="geometry">
            <mxPoint as="offset" />
          </mxGeometry>
        </mxCell>
        <mxCell id="ZT-aWz_Tc5fy5EEWcYav-17" value="Waiting-txn" style="ellipse;whiteSpace=wrap;html=1;aspect=fixed;" vertex="1" parent="1">
          <mxGeometry x="170" y="520" width="80" height="80" as="geometry" />
        </mxCell>
        <mxCell id="ZT-aWz_Tc5fy5EEWcYav-18" value="Consensus" style="rhombus;whiteSpace=wrap;html=1;" vertex="1" parent="1">
          <mxGeometry x="170" y="350" width="80" height="80" as="geometry" />
        </mxCell>
        <mxCell id="ZT-aWz_Tc5fy5EEWcYav-19" value="" style="endArrow=classic;html=1;rounded=0;entryX=0.5;entryY=1;entryDx=0;entryDy=0;" edge="1" parent="1" source="ZT-aWz_Tc5fy5EEWcYav-18" target="ZT-aWz_Tc5fy5EEWcYav-2">
          <mxGeometry relative="1" as="geometry">
            <mxPoint x="360" y="390" as="sourcePoint" />
            <mxPoint x="280" y="330" as="targetPoint" />
          </mxGeometry>
        </mxCell>
        <mxCell id="ZT-aWz_Tc5fy5EEWcYav-20" value="Process" style="edgeLabel;resizable=0;html=1;;align=center;verticalAlign=middle;" connectable="0" vertex="1" parent="ZT-aWz_Tc5fy5EEWcYav-19">
          <mxGeometry relative="1" as="geometry" />
        </mxCell>
        <mxCell id="ZT-aWz_Tc5fy5EEWcYav-25" value="" style="endArrow=classic;html=1;rounded=0;exitX=1;exitY=0.5;exitDx=0;exitDy=0;entryX=0;entryY=0.5;entryDx=0;entryDy=0;" edge="1" parent="1" source="ZT-aWz_Tc5fy5EEWcYav-2" target="ZT-aWz_Tc5fy5EEWcYav-4">
          <mxGeometry relative="1" as="geometry">
            <mxPoint x="376" y="300" as="sourcePoint" />
            <mxPoint x="414" y="383" as="targetPoint" />
          </mxGeometry>
        </mxCell>
        <mxCell id="ZT-aWz_Tc5fy5EEWcYav-26" value="Label" style="edgeLabel;resizable=0;html=1;;align=center;verticalAlign=middle;" connectable="0" vertex="1" parent="ZT-aWz_Tc5fy5EEWcYav-25">
          <mxGeometry relative="1" as="geometry">
            <mxPoint x="45" y="-70" as="offset" />
          </mxGeometry>
        </mxCell>
        <mxCell id="ZT-aWz_Tc5fy5EEWcYav-27" value="Text" style="edgeLabel;html=1;align=center;verticalAlign=middle;resizable=0;points=[];" vertex="1" connectable="0" parent="ZT-aWz_Tc5fy5EEWcYav-25">
          <mxGeometry x="-0.05" y="3" relative="1" as="geometry">
            <mxPoint as="offset" />
          </mxGeometry>
        </mxCell>
        <mxCell id="ZT-aWz_Tc5fy5EEWcYav-28" value="Text" style="edgeLabel;html=1;align=center;verticalAlign=middle;resizable=0;points=[];" vertex="1" connectable="0" parent="ZT-aWz_Tc5fy5EEWcYav-25">
          <mxGeometry y="5" relative="1" as="geometry">
            <mxPoint as="offset" />
          </mxGeometry>
        </mxCell>
        <mxCell id="ZT-aWz_Tc5fy5EEWcYav-29" value="State" style="edgeLabel;html=1;align=center;verticalAlign=middle;resizable=0;points=[];" vertex="1" connectable="0" parent="ZT-aWz_Tc5fy5EEWcYav-25">
          <mxGeometry x="-0.0222" y="3" relative="1" as="geometry">
            <mxPoint as="offset" />
          </mxGeometry>
        </mxCell>
        <mxCell id="ZT-aWz_Tc5fy5EEWcYav-30" value="" style="ellipse;shape=cloud;whiteSpace=wrap;html=1;" vertex="1" parent="1">
          <mxGeometry x="330" y="330" width="260" height="230" as="geometry" />
        </mxCell>
        <mxCell id="ZT-aWz_Tc5fy5EEWcYav-31" value="" style="endArrow=none;dashed=1;html=1;dashPattern=1 3;strokeWidth=2;rounded=0;exitX=1;exitY=1;exitDx=0;exitDy=0;" edge="1" parent="1" source="ZT-aWz_Tc5fy5EEWcYav-18" target="ZT-aWz_Tc5fy5EEWcYav-30">
          <mxGeometry width="50" height="50" relative="1" as="geometry">
            <mxPoint x="390" y="420" as="sourcePoint" />
            <mxPoint x="440" y="370" as="targetPoint" />
          </mxGeometry>
        </mxCell>
      </root>
    </mxGraphModel>
  </diagram>
</mxfile>
